<svg xmlns="http://www.w3.org/2000/svg" width="1079.496" height="349.341" viewBox="0 0 1079.496 349.341">
  <g id="logo" transform="translate(-38.116 -125.25)">
    <g id="_ffffffff" data-name="#ffffffff">
      <path id="Path_1" data-name="Path 1" d="M545.25,125.25H558V349.88c-4.25-.01-8.51-.01-12.75-.01.01-9.3-.02-18.61.02-27.91-9.99,13.46-24.01,24.2-40.23,28.85a82.451,82.451,0,0,1-43.86.3c-18.67-5.13-34.61-18.15-44.92-34.35-9.52-14.99-12.61-33.42-10.36-50.89,3.99-33.28,32.73-61.75,65.98-65.64,17.34-2.15,35.62.83,50.6,10.12,8.91,5.32,16.36,12.7,22.75,20.8q.075-52.95.02-105.9m-72.69,88.5c-19.01,2.57-35.79,15.01-45.49,31.31-8.2,13.81-10.18,30.82-6.76,46.39,3.22,14.8,12.59,27.78,24.65,36.74,21.49,16.2,53.69,16.19,75.14-.08,12.65-9.47,22.46-23.39,25.06-39.16.23-5.31.02-10.63.09-15.94-.08-4,.39-8.08-.76-11.97-3.97-16.58-15.44-30.81-29.93-39.52C502.06,214.02,486.88,211.67,472.56,213.75Z" fill="#fff"/>
      <path id="Path_2" data-name="Path 2" d="M287.86,200.35c16.63-2.04,34.1.56,48.72,9a81.067,81.067,0,0,1,24.68,22.14c-.02-6.46,0-12.91-.01-19.37H374V350H361.25c.01-9.31-.02-18.62.02-27.93-10.42,14.09-25.31,25.16-42.42,29.47-19.57,4.88-41.25,2.81-58.77-7.55a82.738,82.738,0,0,1-30.16-31.15c-7.77-14.23-10.04-31-8-46.96,4.04-33.23,32.74-61.62,65.94-65.53m1.68,13.39c-16.47,1.94-31.45,11.34-41.57,24.3-16.92,20.91-17.77,53.13-2.07,74.95,8.75,12.21,21.55,21.79,36.23,25.44,16.46,4.05,34.7,2.03,49.23-6.98,12.4-7.76,22.59-19.47,27.47-33.36,1.3-3.92,2.62-7.96,2.44-12.14-.15-7.3.21-14.61-.18-21.89-3.24-17.79-15.22-33.23-30.56-42.43C318.32,214.31,303.56,211.91,289.54,213.74Z" fill="#fff"/>
      <path id="Path_3" data-name="Path 3" d="M644.44,201.66c19.29-4.21,40.41-1.84,57.47,8.47a77.043,77.043,0,0,1,27.64,28.28,65.647,65.647,0,0,1,7.74,31.46q-69.075.015-138.16,0c-1.55,13.87,1.28,28.36,8.81,40.19,9.03,14.17,23.43,25.22,39.99,28.8,14.11,3.01,29.33,1.75,42.36-4.63a69.3,69.3,0,0,0,23.35-19.2c4.68,1.43,9.25,3.19,13.88,4.79-10.38,13.74-24.29,25.49-40.95,30.64a82.382,82.382,0,0,1-43.34,1.32c-17.22-4.14-32.26-15.1-42.93-29.05-20.3-26.13-20.17-65.98.17-92.04,10.9-14.16,26.38-25.15,43.97-29.03m-15.12,20.69a67.1,67.1,0,0,0-27.72,34.52q60.6.015,121.2,0c-6.77-22.09-26.86-39.49-49.73-42.9C658.13,211.64,642.2,214.21,629.32,222.35Z" fill="#fff"/>
      <path id="Path_4" data-name="Path 4" d="M165.03,241.7c5.44-14.66,18.44-25.13,32.64-30.79,2.37,4.1,4.71,8.23,7.07,12.34-10.74,1.84-19.54,9.06-26.48,17.07-7.44,8.45-13.21,19.08-13.21,30.59-.11,26.37-.02,52.73-.05,79.09H152.25V212.12H165C165.01,221.98,164.97,231.84,165.03,241.7Z" fill="#fff"/>
      <path id="Path_5" data-name="Path 5" d="M364.3,394c-.46-3.19,3.62-2.88,5.61-2.16.97,1.13.53,2.72.67,4.08-.06,8.01.03,16.02-.06,24.04a23.856,23.856,0,0,1,17.49-6.9c10.22-.01,19.7,7.6,22.28,17.41a24.755,24.755,0,0,1-1.14,15.78c-3.62,8.21-12.08,14.21-21.15,14.2a23.461,23.461,0,0,1-17.45-7c-.24,1.95.84,4.59-1.26,5.79-1.9.18-5.24.58-5-2.27q-.015-31.485.01-62.97m17.11,26.55c-6.99,2.56-12.04,9.93-10.88,17.47-.34,5.12,2.87,9.75,6.82,12.7a17.237,17.237,0,0,0,21.92-1.53c5.51-4.94,6.86-13.59,3.56-20.13A17.4,17.4,0,0,0,381.41,420.55Z" fill="#fff"/>
      <path id="Path_6" data-name="Path 6" d="M610.3,393.99c-.67-3.72,7.06-3.61,6.25.12.03,20.63-.01,41.26.02,61.89a4.837,4.837,0,0,1-1.1,3.41c-1.7-.47-4.63.72-5.12-1.67C610.2,436.5,610.31,415.24,610.3,393.99Z" fill="#fff"/>
      <path id="Path_7" data-name="Path 7" d="M630.29,394.09c-.77-3.81,7.07-3.76,6.27.03.02,20.63-.02,41.27.01,61.91a4.8,4.8,0,0,1-1.1,3.37c-1.7-.43-4.48.7-5.12-1.59C630.19,436.57,630.31,415.32,630.29,394.09Z" fill="#fff"/>
      <path id="Path_8" data-name="Path 8" d="M861.11,391.63c1.75-.12,4.4-.93,5.29,1.22.16,21.39.04,42.79.06,64.18.21,2.72-3.13,2.39-4.91,2.23-2.22-1.08-1.12-3.89-1.37-5.79a23.715,23.715,0,0,1-19.08,6.89c-11.71-.79-21.72-11.61-21.48-23.37-.43-10.92,7.92-21.22,18.54-23.41a24.09,24.09,0,0,1,22.05,6.4c-.05-8.01.01-16.02-.04-24.03.14-1.44-.4-3.29.94-4.32m-23.74,28.9c-7.04,2.56-12.01,10.01-11.23,17.54.37,8.58,8.25,15.98,16.84,15.86a17.329,17.329,0,0,0,16.04-10.08c1.67-3.35,1.2-7.23,1.06-10.83C858.29,423.12,846.72,416.81,837.37,420.53Z" fill="#fff"/>
      <path id="Path_9" data-name="Path 9" d="M933.3,393.98c-.66-3.7,7.03-3.61,6.25.11.03,20.63-.02,41.27.03,61.9a4.8,4.8,0,0,1-1.1,3.37c-1.54-.06-3.08-.11-4.6-.15a11.115,11.115,0,0,1-.62-4.19C933.32,434.67,933.24,414.32,933.3,393.98Z" fill="#fff"/>
      <path id="Path_10" data-name="Path 10" d="M911.02,401.16A12.3,12.3,0,0,1,923.07,395c1.7.23,3.79.27,4.72,2.02a15.705,15.705,0,0,1-1.17,3.79c-2.37,1.33-5.43-.82-7.71,1.06-5.19,3.09-2.84,9.87-3.35,14.79,2.24-.01,4.49-.1,6.75.07,2.02.65,1.39,3.29,1.35,4.91-1.7,2.55-5.53.78-8.1,1.3q0,16.53.01,33.08a4.872,4.872,0,0,1-1.1,3.38c-1.71-.43-4.48.7-5.11-1.58-.19-11.57-.03-23.15-.08-34.73-1.43-.24-3.3.16-4-1.47a13.259,13.259,0,0,1,0-3.56c.52-1.8,2.61-1.3,4.01-1.54C909.57,411.42,908.28,405.8,911.02,401.16Z" fill="#fff"/>
      <path id="Path_11" data-name="Path 11" d="M565.09,414.86a23.945,23.945,0,0,1,25.96,5.04c.18-.8.53-2.39.71-3.18,1.89.2,4.5-.92,5.63,1.22.21,12.35,0,24.72.1,37.08-.07,1.5.36,3.38-1.29,4.22a17.646,17.646,0,0,1-4.11-.1c-1.51-1.52-.71-3.8-.91-5.67a23.681,23.681,0,0,1-19.08,6.89c-11.71-.79-21.72-11.61-21.48-23.37-.35-9.46,5.83-18.49,14.47-22.13m3.31,5.66c-7.06,2.55-12.05,10.02-11.26,17.56.38,8.6,8.29,15.99,16.89,15.85,6.74.3,13.15-3.99,15.97-10.03,1.69-3.35,1.23-7.25,1.08-10.87C589.31,423.14,577.74,416.82,568.4,420.52Z" fill="#fff"/>
      <path id="Path_12" data-name="Path 12" d="M714.62,437.03c-.47-11.19,8.33-21.76,19.32-23.6a23.8,23.8,0,0,1,21.11,6.46c.18-.8.55-2.39.73-3.19,1.89.21,4.48-.88,5.61,1.24.21,12.35,0,24.71.1,37.07-.07,1.51.37,3.39-1.29,4.22-1.7,0-4.12.71-4.94-1.29a44.5,44.5,0,0,1-.08-4.47,23.694,23.694,0,0,1-19.07,6.89c-11.7-.78-21.7-11.58-21.49-23.33m17.71-16.49a17.349,17.349,0,0,0-11.22,15.38c-.76,8.99,6.87,17.57,15.85,17.96,9.77,1.12,19.53-7.88,18.27-17.84C755.8,424.72,742.6,416.3,732.33,420.54Z" fill="#fff"/>
      <path id="Path_13" data-name="Path 13" d="M969.57,413.69a23.707,23.707,0,0,1,29.07,26.51c-1.38,11.36-12.14,20.71-23.63,20.25-12.47.28-23.75-10.97-23.49-23.44-.43-10.75,7.65-20.9,18.05-23.32m.64,6.53c-7.51,2.21-12.99,10-12.17,17.86.39,9,9.01,16.57,17.99,15.84,9.48-.12,17.56-9.39,16.3-18.82C991.7,424.64,980.16,416.86,970.21,420.22Z" fill="#fff"/>
      <path id="Path_14" data-name="Path 14" d="M1027.54,413.7a23.7,23.7,0,0,1,23.84,7.82c7.93,9,7.19,24.11-1.67,32.23-8.2,8.5-23.02,8.98-31.79,1.09a23.387,23.387,0,0,1-8.34-19.73c.43-10.05,8.23-19.11,17.96-21.41m.65,6.53c-7.16,2.13-12.54,9.32-12.19,16.85-.15,8.99,7.99,17.04,16.97,16.85,9.89.51,18.72-9.05,17.35-18.89C1049.66,424.6,1038.12,416.86,1028.19,420.23Z" fill="#fff"/>
      <path id="Path_15" data-name="Path 15" d="M780.05,417.54c7.16-5.09,18.2-4.31,23.86,2.67a17.026,17.026,0,0,1,3.85,10.75c.07,8.02-.03,16.05.04,24.07a11.636,11.636,0,0,1-.66,4.25c-1.86-.26-4.41.8-5.5-1.26-.24-8.99.05-17.99-.12-26.97-.08-5.53-5.07-10.32-10.53-10.5a11.276,11.276,0,0,0-10.83,6.57c-.26,9.97.01,19.96-.12,29.94.21,3.31-6.42,3.23-6.24.01.01-13.05-.12-26.1.06-39.15C775.14,415.75,778.22,416.51,780.05,417.54Z" fill="#fff"/>
      <path id="Path_16" data-name="Path 16" d="M652.36,429.95c-3.25-6.42,1.57-14.96,8.74-15.45,6.18-.97,12.2,4.5,11.67,10.76-1.36.54-2.73,1.05-4.1,1.54-2.74-.86-1.81-5.05-4.7-5.81-3.89-1.7-8.09,3.19-5.72,6.74,3.58,4.29,9.62,5.57,13.21,9.91a13.181,13.181,0,0,1-19.12,18.09,13.1,13.1,0,0,1-4.21-9.77c1.65-.44,3.29-.88,4.95-1.32,2.18,2.36,1.83,6.49,5.3,7.78,5.52,3.08,12.33-3.69,9.34-9.24C664.03,437.25,655.44,436.45,652.36,429.95Z" fill="#fff"/>
      <path id="Path_17" data-name="Path 17" d="M1094.97,429.01c-2.61-6.65,2.89-14.69,10.04-14.57,5.91-.44,11.12,4.87,10.84,10.74-1.4.56-2.8,1.14-4.19,1.63-2.52-.79-1.84-4.22-3.95-5.47-2.82-1.8-7,.35-7.08,3.7-.3,3.43,3.24,5.11,5.67,6.69,4.58,2.55,9.71,5.69,10.89,11.23,2.04,7.38-3.58,15.66-11.23,16.29-7.66,1.18-15.11-5.6-14.83-13.3,1.65-.43,3.3-.87,4.98-1.31,2.12,2.41,1.82,6.53,5.32,7.81,5.49,2.99,12.2-3.67,9.33-9.18C1106.96,437,1097.53,436.33,1094.97,429.01Z" fill="#fff"/>
      <path id="Path_18" data-name="Path 18" d="M1067.34,418.1c.19-2.24,3.02-1.75,4.6-1.63,2.33.36,1.36,3.38,1.61,4.99a24.334,24.334,0,0,1,8.68-5.79c.86,1.71,2.23,3.27,2.54,5.21-1.23,1.92-3.78,2.03-5.37,3.53-3.12,2.66-5.93,6.33-5.86,10.62-.11,7.54.12,15.09-.08,22.64-1.27,2.55-7.11,1.93-6.22-1.61C1067.32,443.41,1067.12,430.75,1067.34,418.1Z" fill="#fff"/>
      <path id="Path_19" data-name="Path 19" d="M419.07,418.31c.9-2.67,3.95-1.38,6.05-1.67q6.165,13.11,12.34,26.23,6.165-13.11,12.36-26.21l4.78-.03c.34.41,1.02,1.22,1.36,1.63-8.6,18.82-17.48,37.52-26.19,56.3-2.19-.23-5.35.89-6.14-1.97,3.58-7.32,6.97-14.72,10.36-22.13C428.98,439.76,423.82,429.12,419.07,418.31Z" fill="#fff"/>
      <path id="Path_20" data-name="Path 20" d="M490.36,418.17c.94-2.65,4.19-1.13,6.28-1.53q4.86,15.09,9.74,30.19,4.215-11.685,8.43-23.35c1.3-.01,2.59-.02,3.9-.01q4.215,11.67,8.43,23.36,4.845-15.09,9.69-30.16c1.76-.02,3.53-.03,5.31-.06a3.01,3.01,0,0,1,.56,3.19c-4.43,13.17-8.94,26.32-13.4,39.49-1.4-.01-2.78-.02-4.16-.01-2.8-7.84-5.58-15.69-8.41-23.51q-4.2,11.76-8.39,23.52c-1.41-.01-2.82-.01-4.22-.01C499.59,445.56,494.66,431.96,490.36,418.17Z" fill="#fff"/>
    </g>
    <g id="_f69000ff" data-name="#f69000ff">
      <path id="Path_21" data-name="Path 21" d="M65.16,148.04q14.835-.1,29.68.01c.08,18.77.01,37.55.04,56.32,8.99.02,17.98-.02,26.97.02.03,8.57.05,17.14-.01,25.7-8.99.08-17.98.01-26.96.04q-.015,60.15-.01,120.3-14.865.18-29.74,0-.03-60.15-.01-120.3c-8.99-.02-17.97.03-26.96-.04-.07-8.56-.04-17.13-.02-25.69,9-.05,17.99-.01,26.98-.03C65.15,185.6,65.07,166.82,65.16,148.04Z" fill="#f69000"/>
      <path id="Path_22" data-name="Path 22" d="M773.2,315.22c9.83-1.84,20.73,4.04,23.48,13.87,2.07,6.94-1.27,14.46-6.89,18.68-5.51,4.38-13.21,5.14-19.84,3.27-7.73-2.22-14.11-9.76-13.73-18.01C756.33,323.94,764.37,316.21,773.2,315.22Z" fill="#f69000"/>
    </g>
  </g>
</svg>