<?xml version="1.0" encoding="utf-8"?>
<!-- Generator: Adobe Illustrator 25.4.1, SVG Export Plug-In . SVG Version: 6.00 Build 0)  -->
<svg version="1.1" id="Layer_1" xmlns="http://www.w3.org/2000/svg" xmlns:xlink="http://www.w3.org/1999/xlink" x="0px" y="0px"
	 viewBox="0 0 2300 507.69" style="enable-background:new 0 0 2300 507.69;" xml:space="preserve">
<style type="text/css">
	.st0{fill:#FFFFFF;}
</style>
<g>
	<path class="st0" d="M930.31,428.74c-14.9,3.61-29.95,7.38-45.31,11.14c-0.45,0.15-2.26,1.35-5.57,3.61
		c-3.31,2.41-5.42,3.61-6.17,3.46c-4.22,0-5.72-5.42-7.53-9.63c1.96-1.81,4.67-7.83,7.98-17.91c2.11-6.47,4.22-13.1,6.17-19.72
		c2.56-8.13,5.12-16.26,7.68-24.54c5.87-17.91,11.59-32.36,16.86-43.35c7.38-15.35,13.7-22.88,18.97-22.73
		c3.76,0.15,6.77,2.11,9.18,5.87c2.11,3.16,3.01,6.32,2.86,9.63c0,1.05-0.45,3.01-1.21,5.87c-0.9,3.16-1.8,5.42-2.71,6.48
		c-1.51,0.6-3.76,1.65-6.62,3.01c-2.86-1.2-4.22-2.56-4.06-4.22c0-0.3,0.45-1.96,1.5-5.12c1.05-3.16,1.81-5.12,2.11-5.72l-1.05-1.05
		c-2.41,1.66-4.67,4.21-6.92,7.38c-0.6,0.9-2.86,4.67-6.77,11.44c-1.36,2.41-6.47,16.56-15.51,42.6
		c-9.18,26.34-13.7,40.64-13.85,42.9l-0.15,3.01c4.22-1.05,11.14-2.25,20.77-3.76l46.06-9.93c0.45,0,0.75,0.45,0.75,1.5
		C947.77,422.12,941.9,425.28,930.31,428.74z"/>
	<path class="st0" d="M991.89,406.92c-9.48,8.13-18.06,12.49-25.74,12.94c0.3,3.31,1.96,6.17,4.97,8.43
		c2.41,1.81,4.82,2.71,7.38,2.71c2.86,0,7.23-1.2,13.1-3.61c6.77-2.86,10.09-4.21,10.09-4.36c1.35-0.3,2.71,0.15,3.76,1.2
		c-1.66,2.41-6.02,5.57-13.1,9.33c-7.08,3.91-12.19,5.87-15.66,5.87c-5.87,0-10.69-2.26-14.45-6.62c-3.16-3.91-4.82-8.43-4.97-13.7
		c-0.15-7.98,4.21-17.16,13.25-27.55c9.03-10.39,17.61-15.51,25.74-15.51c2.26,0,4.37,1.06,6.62,3.31c2.26,2.26,3.31,4.51,3.31,6.77
		C1006.18,391.87,1001.37,398.79,991.89,406.92z M993.99,387.2c-4.36,0-9.33,2.71-15.05,8.28c-4.82,4.82-7.98,9.18-9.63,13.25
		c3.01,0,5.87-0.75,8.58-2.26c1.35-0.75,4.06-2.56,8.13-5.57c4.22-3.16,7.53-7.23,10.09-12.5
		C995.35,387.65,994.59,387.2,993.99,387.2z"/>
	<path class="st0" d="M1095.9,417.46c-0.6,4.06-4.52,8.73-11.59,13.85c-7.07,5.12-12.49,7.68-16.26,7.68
		c-1.05,0-1.81-0.45-2.86-0.45c-1.81,0-4.06-1.06-6.62-3.31c-2.26-1.95-3.61-3.46-4.22-4.82c-1.96-4.06-3.01-8.13-3.01-12.04
		c0-1.36,0.15-2.86,0.45-4.22l-13.55,12.19c-5.57,4.37-10.84,6.62-15.66,6.62c-1.66,0-3.31-1.5-4.97-4.51
		c-1.51-2.56-2.26-4.82-2.26-6.62c0-6.17,4.97-14.75,15.05-25.74c10.09-10.99,18.06-16.41,23.78-16.26c3.46,0,4.37,3.01,5.57,5.42
		c0.75-1.5,1.51-3.01,2.26-4.67c1.36-2.71,2.71-4.06,4.06-4.06c1.35,0,3.01,0.9,4.97,2.86c0.75,1.2,0.45,3.61-0.75,7.08
		c-2.11,3.01-3.61,5.72-4.67,8.13c-1.06,2.71-2.26,6.62-3.46,11.74c-1.05,4.52-1.66,7.23-1.66,8.28c0,3.46,0.75,6.62,2.26,9.49
		c1.96,3.76,4.52,5.57,7.98,5.57c2.86,0,6.62-1.51,11.29-4.52c4.06-2.56,7.98-5.12,11.89-7.67H1095.9z M1050.44,392.77
		c-1.66,0-4.22,1.51-7.53,4.36c-1.96,1.81-4.06,3.61-6.02,5.57c-2.41,2.11-4.82,5.12-7.38,8.88c-2.41,3.77-3.76,6.92-4.22,9.49
		c0.45,0,1.2,1.35,2.26,1.35c1.66,0,5.87-3.16,12.95-9.33c6.32-5.72,9.94-9.33,10.84-10.69c1.66-2.56,2.86-5.27,3.61-8.13
		C1054.21,394.28,1051.5,392.77,1050.44,392.77z"/>
	<path class="st0" d="M1181.71,417.15c0,1.06-1.51,3.61-4.52,7.98c-1.36,1.96-4.07,4.52-7.83,7.53c-4.21,3.16-7.83,5.12-10.99,6.17
		c-1.36,0.45-3.46,0.3-6.32-0.15c-2.86-0.45-4.97-1.2-6.32-1.95c-6.47-4.06-9.63-12.04-9.63-23.63c0-3.61,0.3-6.92,1.05-9.94
		c-2.56,5.27-7.23,11.59-13.7,18.82c-8.58,9.33-15.96,14.15-21.98,14.6c-1.36,0-3.16-1.2-5.72-3.61c-2.41-2.56-3.61-4.21-3.76-4.97
		c-0.45-6.92,4.52-17.16,14.75-30.56c10.69-14,20.02-21.07,27.85-21.52c1.65,0,2.56,0.15,2.71,0.3c0.3,0.15,1.51,1.36,3.46,3.91
		c3.77-7.22,7.38-14.45,10.99-21.53c6.17-11.59,11.59-19.11,16.41-22.43c1.5,0.76,2.71,1.21,3.46,1.66c0,0.75,1.81,3.46,1.81,4.21
		c0,0.15,0,0.45-0.15,0.6c-3.31,4.06-8.73,13.55-16.11,28.6c-2.86,5.57-5.42,12.5-7.98,20.77c-3.01,9.79-4.36,17.01-4.21,21.83
		c0.15,3.46,0.75,6.32,1.5,8.58c1.51,4.67,4.07,7.08,7.83,7.38c3.46,0.3,7.83-1.51,12.95-5.27l12.19-9.03
		c0.45-0.45,1.05-0.3,2.11,0.6C1181.71,416.55,1181.71,416.85,1181.71,417.15z M1133.39,388.4c-1.81-0.3-3.91,0.45-6.32,2.11
		c-1.81,1.35-3.61,2.86-5.27,4.36c-2.56,1.81-6.32,6.17-11.44,13.25c-5.87,7.83-8.58,13.25-8.43,16.11c0,0.6,0.3,1.06,0.75,1.51
		c3.16-0.45,6.93-2.86,11.29-7.23c3.46-3.46,6.47-6.92,8.88-10.69c2.11-2.71,4.22-5.42,6.17-7.98c3.61-4.97,5.42-8.28,5.27-9.63
		C1134.15,389.46,1133.85,388.86,1133.39,388.4z"/>
	<path class="st0" d="M1210.92,424.38c-7.38,6.77-12.19,10.24-14.3,10.24c-0.45,0-1.5,0-3.46,0.15c-1.8,0.15-3.01,0.3-3.46,0.3
		c-3.16,0-6.02-1.66-8.58-5.12c-2.56-3.46-3.91-6.77-3.91-9.93c0-3.77,2.26-10.84,6.77-21.23c4.67-10.84,7.98-16.25,10.24-16.25
		c3.16,0,5.57,1.95,7.23,5.72c-0.45,1.05-3.47,6.62-8.88,16.41c-3.46,6.32-5.27,11.59-5.27,15.81c0,0.9,0,1.81,0.15,2.56
		c0.76,1.36,2.56,2.11,5.27,2.11c3.77,0,8.88-2.56,15.35-7.67c7.68-5.87,12.04-9.18,13.4-9.63c0,0.15,0.75,1.05,0.75,2.11
		C1222.21,412.79,1218.45,417.6,1210.92,424.38z M1217.24,358.6c-4.82,3.61-7.83,5.42-9.03,5.42c-3.16,0-6.47-4.52-6.47-7.53
		c0-0.6,0.15-1.06,0.3-1.36c1.96-1.05,3.91-2.26,5.87-3.31c7.97-4.22,16.11-4.82,16.26-4.82c0.75,0,1.66,1.05,2.71,3.01
		C1225.22,352.13,1222.06,354.99,1217.24,358.6z"/>
	<path class="st0" d="M1252.62,409.33c1.51-5.87,2.26-8.58,2.26-8.43c-4.67,4.97-8.43,9.03-11.29,12.34
		c-5.27,6.17-8.88,11.29-10.84,15.05c-1.05,0-4.22,1.81-5.27,1.81c-1.06,0-2.26-0.75-3.61-2.26c-1.2-1.51-1.81-2.41-1.81-2.86
		c0-0.76,1.2-5.87,3.61-15.66c2.56-9.78,4.67-17.61,6.32-23.18c0.6-1.95,4.22-3.61,6.17-3.61c0.45,0,1.2,0.3,2.26,0.9
		c1.36,0.9,2.11,1.35,2.26,1.35c0.3,1.96-0.45,5.42-2.26,10.39c-1.96,5.27-3.01,8.58-3.01,9.63c0,0.45,0.15,0.9,0.45,1.2
		c2.26-2.11,5.42-5.72,9.48-10.84c4.07-5.27,7.23-8.88,9.33-10.84c3.46-3.16,6.77-4.67,9.79-4.67c2.11,0,3.16,1.81,3.16,5.42
		c0,3.61-1.66,9.63-4.96,18.06c-3.16,8.43-4.82,14.15-4.82,17.16c0,5.27,1.95,7.98,6.02,7.98c1.66,0,6.47-2.41,14.6-7.22
		c0.6,0.45,1.8,0.75,1.35,1.8c-1.35,2.86-4.21,6.02-8.28,9.49c-4.06,3.31-7.22,4.97-9.63,4.97c-7.97,0-12.34-5.42-13.24-16.11
		C1250.52,418.96,1251.12,415.05,1252.62,409.33z"/>
	<path class="st0" d="M1346.41,387.05c0,0.9-1.06,3.31-3.31,7.38c-4.66,8.58-6.17,18.06-7.98,26.95
		c-5.57,26.04-12.34,45.01-20.32,57.2c-11.89,17.76-28.9,27.09-51.33,27.85c-6.02,0.15-12.19-3.16-18.36-9.94
		c-5.87-6.47-8.88-12.49-9.03-18.06c-0.15-5.27,0.75-10.69,2.86-16.26c2.26-6.62,5.42-10.99,9.33-13.1l0.15,3.16
		c-0.15-0.15-0.9,1.96-2.26,6.62c-1.51,4.97-2.26,8.88-2.26,11.89c0,0.9,0,1.66,0.15,2.41c1.51,8.28,3.91,13.85,7.38,16.71
		c3.76,3.31,10.84,5.12,21.07,5.42c5.57,0,12.5-2.86,20.77-8.73c9.18-6.47,15.65-13.85,19.42-22.28c4.21-9.03,7.38-17.61,9.63-25.89
		c1.95-7.98,3.76-16.11,5.57-24.08c-13.7,12.19-23.78,18.36-30.41,18.66c-8.58,0.3-12.94-2.71-13.1-8.88
		c-0.15-5.27,1.96-11.44,6.32-18.36c3.31-5.12,9.79-11.29,19.42-18.52c9.18-6.92,15.8-10.69,19.87-11.29
		c0.6-0.15,1.2-0.15,1.81-0.15c2.41,0,4.67,1.66,5.12,1.66c0.76,0,3.31-1.81,4.37-1.81c2.86-0.15,4.36,2.56,4.52,7.83
		C1345.96,385.24,1346.41,386.6,1346.41,387.05z M1328.35,389.91c-4.21,0.15-10.84,3.91-19.87,11.59
		c-9.33,7.98-14,14.15-13.85,18.82c0,1.36,1.96,2.86,3.31,2.71c4.82-0.15,11.59-4.06,20.32-11.74c8.73-7.68,13.4-14.3,14-19.57
		C1329.7,390.51,1328.35,389.91,1328.35,389.91z"/>
	<path class="st0" d="M1499.51,326.69c-3.77,0-8.58,0.3-14.75,1.06c-4.36,0.45-8.88,1.05-13.39,1.66c-1.06,0.15-3.16,2.86-6.62,8.13
		c-4.66,7.23-9.63,18.22-14.9,33.12c-3.76,11.59-7.68,23.18-11.44,34.77c-0.3,6.02-0.6,12.04-1.05,18.06c-0.75,9.33-2.86,14-6.48,14
		c-2.56-0.15-4.51-1.2-5.87-3.31c-1.05-1.66-1.66-3.31-1.66-5.12c0.15-1.2,1.05-5.72,2.86-13.39c2.11-8.88,4.06-15.96,6.02-21.37
		c7.53-19.87,15.05-40.34,22.73-61.41c0-1.36-0.45-2.26-1.2-2.56c-0.15,0-1.05,0-2.71-0.15c-4.67,0-8.58,0.45-11.74,1.2
		c-4.06,1.06-7.38,1.81-9.78,1.96c-0.15,0.15-0.45,0.75-0.6,1.95c2.71,7.68,4.07,12.2,4.07,13.85c0,1.36-0.9,2.71-0.9,3.16
		l-2.56-0.15c-2.56-4.66-5.87-8.73-10.08-12.19c-1.96-1.05-4.07-2.26-6.17-3.31c-3.16-1.95-4.67-4.21-4.52-6.77
		c0-3.16,0.75-5.12,2.41-5.87c3.31-1.5,8.88-2.56,16.56-3.01c5.57-0.15,11.29-0.45,16.86-0.75c3.61-0.15,8.73-0.6,15.2-1.66
		c0.45-0.15,1.96-0.9,4.52-2.26c2.26-1.05,3.61-1.65,4.36-1.65c0.15,0,0.9,0.6,2.56,1.8c1.66,1.21,3.31,1.81,4.97,1.96
		c0.6,0,4.07-0.15,10.24-0.6c6.32-0.45,9.78-0.6,10.39-0.6c3.61,0,7.22,0,10.84-0.15c7.08,0.15,10.54,0.9,10.54,2.41
		C1518.02,324.43,1511.85,326.84,1499.51,326.69z"/>
	<path class="st0" d="M1515.02,424.38c-7.38,6.77-12.19,10.24-14.3,10.24c-0.45,0-1.51,0-3.47,0.15c-1.8,0.15-3.01,0.3-3.46,0.3
		c-3.16,0-6.02-1.66-8.58-5.12c-2.56-3.46-3.91-6.77-3.91-9.93c0-3.77,2.26-10.84,6.77-21.23c4.67-10.84,7.98-16.25,10.24-16.25
		c3.16,0,5.57,1.95,7.22,5.72c-0.45,1.05-3.46,6.62-8.88,16.41c-3.46,6.32-5.27,11.59-5.27,15.81c0,0.9,0,1.81,0.15,2.56
		c0.75,1.36,2.56,2.11,5.27,2.11c3.77,0,8.88-2.56,15.35-7.67c7.68-5.87,12.04-9.18,13.4-9.63c0,0.15,0.75,1.05,0.75,2.11
		C1526.31,412.79,1522.55,417.6,1515.02,424.38z M1521.34,358.6c-4.82,3.61-7.83,5.42-9.03,5.42c-3.16,0-6.47-4.52-6.47-7.53
		c0-0.6,0.15-1.06,0.3-1.36c1.96-1.05,3.91-2.26,5.87-3.31c7.98-4.22,16.11-4.82,16.26-4.82c0.75,0,1.66,1.05,2.71,3.01
		C1529.32,352.13,1526.16,354.99,1521.34,358.6z"/>
	<path class="st0" d="M1565.75,331.35c-3.31,7.83-8.73,22.28-16.26,43.35c-9.03,24.84-13.7,40.94-14,48.17
		c-0.15,2.11,0.45,4.52,1.66,7.38c1.36,2.86,1.95,4.21,1.81,4.37c0,1.66-0.9,2.56-2.56,2.41h-2.71c-2.41,0-4.37-1.96-6.02-6.02
		c-1.2-2.86-1.81-5.12-1.66-6.47c0.15-4.82,1.05-10.54,2.86-17.01c3.76-12.94,8.88-28,15.05-45.15c4.06-10.99,7.08-21.68,8.73-32.21
		c0.15-1.05,1.2-2.56,3.01-4.37c1.96-1.81,3.16-2.71,3.91-2.71c1.35,0.15,2.86,1.21,4.52,3.16L1565.75,331.35z"/>
	<path class="st0" d="M1591.95,406.92c-9.48,8.13-18.06,12.49-25.74,12.94c0.3,3.31,1.95,6.17,4.96,8.43
		c2.41,1.81,4.82,2.71,7.38,2.71c2.86,0,7.23-1.2,13.1-3.61c6.78-2.86,10.09-4.21,10.09-4.36c1.36-0.3,2.71,0.15,3.77,1.2
		c-1.66,2.41-6.02,5.57-13.09,9.33c-7.08,3.91-12.19,5.87-15.65,5.87c-5.87,0-10.69-2.26-14.45-6.62c-3.16-3.91-4.82-8.43-4.97-13.7
		c-0.15-7.98,4.21-17.16,13.25-27.55c9.03-10.39,17.61-15.51,25.74-15.51c2.26,0,4.37,1.06,6.62,3.31c2.26,2.26,3.31,4.51,3.31,6.77
		C1606.24,391.87,1601.43,398.79,1591.95,406.92z M1594.05,387.2c-4.36,0-9.33,2.71-15.05,8.28c-4.82,4.82-7.97,9.18-9.63,13.25
		c3.01,0,5.87-0.75,8.58-2.26c1.36-0.75,4.06-2.56,8.13-5.57c4.22-3.16,7.53-7.23,10.09-12.5
		C1595.41,387.65,1594.66,387.2,1594.05,387.2z"/>
	<path class="st0" d="M1748.95,343.4c-1.66,2.56-2.71,3.76-3.46,3.76c-1.35,0-2.26-0.75-2.71-0.75c-0.45-4.52-1.06-9.03-1.51-13.39
		c-0.9-5.87-3.31-8.73-7.38-8.88c-6.47-0.15-11.14,1.66-14.3,5.27c-2.26,2.71-3.46,6.17-3.46,10.23c0,1.96,0.3,3.61,0.75,4.67
		c4.97,8.88,9.93,17.61,14.9,26.49c8.28,14.9,12.34,24.84,12.34,29.96c0,12.8-5.72,23.63-17.01,32.51
		c-9.79,7.67-20.02,11.59-30.41,11.59c-0.45,0-2.11-0.3-4.97-0.75c-2.86-0.45-4.51-0.75-5.27-0.75c-3.46,0-7.83-2.71-13.24-8.13
		c-5.72-5.72-8.58-10.69-8.58-14.75c0-4.67,1.96-11.14,5.87-19.27c3.76-7.83,6.47-12.04,8.28-12.5c1.81,0.76,2.71,1.96,2.71,3.61
		c0-0.45-1.2,2.26-3.77,8.28c-2.41,6.02-3.61,10.99-3.61,15.05c0,6.02,3.01,10.69,8.88,14c4.97,2.86,10.84,4.21,17.31,4.21
		s13.55-3.01,21.53-9.03c8.28-6.32,12.49-12.64,12.49-18.82c0-5.27-1.96-11.89-5.87-20.17c-1.81-3.61-4.97-8.88-9.63-15.96
		c-4.67-7.07-7.83-12.34-9.48-15.95c-2.86-6.17-4.37-11.89-4.37-17.46c0-5.57,3.16-11.14,9.33-16.71
		c6.17-5.57,11.89-8.28,17.01-8.28c7.68,0,12.94,2.41,16.11,7.38c2.71,4.06,4.06,10.69,4.06,19.57
		C1751.51,339.18,1750.61,340.84,1748.95,343.4z"/>
	<path class="st0" d="M1804.51,418.66c-8.58,10.09-16.11,15.51-22.28,15.96c-4.97,0.3-7.68-1.81-7.98-6.48
		c-0.15-1.5,0.45-3.31,1.66-5.57c1.36-2.26,2.86-3.31,4.67-3.46c1.2-0.15,1.96,0.6,2.41,1.96c0,0.9,0,1.8,0.15,2.56
		c0.3,0.3,0.75,0.45,1.2,0.45c4.36-0.45,9.48-4.97,15.35-13.55c5.57-8.43,8.13-14.9,7.83-19.42c-0.45-5.27-3.76-8.28-8.13-8.13
		c-6.32,0.45-12.95,6.62-19.87,18.82c-5.12,8.88-10.08,20.32-14.9,34.32c-3.61,10.69-5.72,17.76-6.17,21.37
		c-0.3,2.26-1.2,5.57-2.56,9.94c-1.81,5.87-2.71,9.03-2.86,9.48c-0.75,0.45-1.96,1.06-3.61,1.66c-1.36,0.15-3.31-1.5-5.87-4.82
		c-0.15-3.16,1.36-8.88,4.36-17.31c2.86-7.98,5.57-15.81,8.43-23.78l9.48-30.26c4.36-13.4,7.53-20.02,9.63-20.17
		c2.26-0.15,3.01-0.3,2.56-0.3c2.25,0,3.46,2.11,3.61,6.32c4.22-8.28,13.55-14.15,22.73-14.3c3.61-0.15,6.62,1.96,9.18,6.02
		c2.11,3.46,3.31,7.53,3.61,12.04C1817.45,399.54,1813.24,408.42,1804.51,418.66z"/>
	<path class="st0" d="M1862.77,406.92c-9.49,8.13-18.06,12.49-25.74,12.94c0.3,3.31,1.95,6.17,4.96,8.43
		c2.41,1.81,4.82,2.71,7.38,2.71c2.86,0,7.23-1.2,13.1-3.61c6.78-2.86,10.09-4.21,10.09-4.36c1.36-0.3,2.71,0.15,3.77,1.2
		c-1.66,2.41-6.02,5.57-13.1,9.33c-7.08,3.91-12.19,5.87-15.65,5.87c-5.87,0-10.69-2.26-14.45-6.62c-3.16-3.91-4.82-8.43-4.97-13.7
		c-0.15-7.98,4.21-17.16,13.25-27.55c9.03-10.39,17.61-15.51,25.74-15.51c2.26,0,4.37,1.06,6.62,3.31c2.26,2.26,3.31,4.51,3.31,6.77
		C1877.07,391.87,1872.25,398.79,1862.77,406.92z M1864.87,387.2c-4.36,0-9.33,2.71-15.05,8.28c-4.82,4.82-7.97,9.18-9.63,13.25
		c3.01,0,5.87-0.75,8.58-2.26c1.36-0.75,4.06-2.56,8.13-5.57c4.22-3.16,7.53-7.23,10.09-12.5
		C1866.23,387.65,1865.48,387.2,1864.87,387.2z"/>
	<path class="st0" d="M1936.23,391.11c-3.46,0.9-6.17,0.6-7.83-1.06c-0.15-0.15-0.3-1.36-0.75-3.31c-0.45-2.11-1.05-3.31-1.95-3.77
		c-4.82,0.3-10.69,4.82-17.46,13.7c-6.78,8.73-10.24,16.41-10.09,23.03c0.15,6.02,4.67,10.99,11.29,10.99c3.91,0,7.08-0.6,9.63-1.96
		c1.36-0.9,3.31-1.96,5.72-3.16c4.52-1.05,3.31-0.9,5.87-2.41c1.2,0.15,2.41,0,2.41,1.2c0,0.3-0.75,1.5-2.26,3.46
		c-1.66,2.26-3.31,3.91-4.67,4.97c-7.08,4.67-12.8,6.92-17.01,6.92c-12.8,0-19.87-7.53-19.87-20.62c0-7.98,3.31-16.56,9.79-25.89
		c6.17-8.88,12.8-15.2,19.87-18.82c1.35-0.75,2.41-1.96,3.16-3.61c2.86-1.05,4.82-1.5,6.02-1.5c2.86,0,5.42,2.41,7.53,7.22
		c1.66,3.61,2.41,6.62,2.41,8.88C1938.04,385.55,1937.43,387.35,1936.23,391.11z"/>
	<path class="st0" d="M1983.65,424.38c-7.38,6.77-12.19,10.24-14.3,10.24c-0.45,0-1.5,0-3.46,0.15c-1.8,0.15-3.01,0.3-3.46,0.3
		c-3.16,0-6.02-1.66-8.58-5.12c-2.56-3.46-3.91-6.77-3.91-9.93c0-3.77,2.26-10.84,6.77-21.23c4.67-10.84,7.98-16.25,10.24-16.25
		c3.16,0,5.57,1.95,7.23,5.72c-0.45,1.05-3.47,6.62-8.88,16.41c-3.46,6.32-5.27,11.59-5.27,15.81c0,0.9,0,1.81,0.15,2.56
		c0.76,1.36,2.56,2.11,5.27,2.11c3.77,0,8.88-2.56,15.35-7.67c7.68-5.87,12.04-9.18,13.4-9.63c0,0.15,0.75,1.05,0.75,2.11
		C1994.94,412.79,1991.18,417.6,1983.65,424.38z M1989.97,358.6c-4.82,3.61-7.83,5.42-9.03,5.42c-3.16,0-6.47-4.52-6.47-7.53
		c0-0.6,0.15-1.06,0.3-1.36c1.96-1.05,3.91-2.26,5.87-3.31c7.97-4.22,16.11-4.82,16.26-4.82c0.75,0,1.66,1.05,2.71,3.01
		C1997.95,352.13,1994.79,354.99,1989.97,358.6z"/>
	<path class="st0" d="M2068.4,417.46c-0.6,4.06-4.52,8.73-11.59,13.85c-7.08,5.12-12.49,7.68-16.26,7.68
		c-1.05,0-1.81-0.45-2.86-0.45c-1.81,0-4.07-1.06-6.62-3.31c-2.26-1.95-3.61-3.46-4.21-4.82c-1.96-4.06-3.01-8.13-3.01-12.04
		c0-1.36,0.15-2.86,0.45-4.22l-13.55,12.19c-5.57,4.37-10.84,6.62-15.65,6.62c-1.66,0-3.31-1.5-4.97-4.51
		c-1.5-2.56-2.25-4.82-2.25-6.62c0-6.17,4.97-14.75,15.05-25.74c10.08-10.99,18.06-16.41,23.78-16.26c3.46,0,4.36,3.01,5.57,5.42
		c0.75-1.5,1.51-3.01,2.26-4.67c1.35-2.71,2.71-4.06,4.06-4.06s3.01,0.9,4.97,2.86c0.75,1.2,0.45,3.61-0.75,7.08
		c-2.11,3.01-3.61,5.72-4.67,8.13c-1.05,2.71-2.26,6.62-3.46,11.74c-1.06,4.52-1.66,7.23-1.66,8.28c0,3.46,0.76,6.62,2.26,9.49
		c1.96,3.76,4.52,5.57,7.98,5.57c2.86,0,6.62-1.51,11.29-4.52c4.06-2.56,7.98-5.12,11.89-7.67H2068.4z M2022.94,392.77
		c-1.66,0-4.22,1.51-7.53,4.36c-1.96,1.81-4.07,3.61-6.02,5.57c-2.41,2.11-4.82,5.12-7.38,8.88c-2.41,3.77-3.76,6.92-4.21,9.49
		c0.45,0,1.2,1.35,2.26,1.35c1.66,0,5.87-3.16,12.94-9.33c6.32-5.72,9.94-9.33,10.84-10.69c1.66-2.56,2.86-5.27,3.61-8.13
		C2026.71,394.28,2024,392.77,2022.94,392.77z"/>
	<path class="st0" d="M2104.38,331.35c-3.31,7.83-8.73,22.28-16.26,43.35c-9.03,24.84-13.7,40.94-14,48.17
		c-0.15,2.11,0.45,4.52,1.66,7.38c1.35,2.86,1.96,4.21,1.8,4.37c0,1.66-0.9,2.56-2.56,2.41h-2.71c-2.41,0-4.37-1.96-6.02-6.02
		c-1.2-2.86-1.81-5.12-1.66-6.47c0.15-4.82,1.05-10.54,2.86-17.01c3.76-12.94,8.88-28,15.05-45.15c4.07-10.99,7.07-21.68,8.73-32.21
		c0.15-1.05,1.2-2.56,3.01-4.37c1.96-1.81,3.16-2.71,3.91-2.71c1.36,0.15,2.86,1.21,4.52,3.16L2104.38,331.35z"/>
	<path class="st0" d="M2133.29,424.38c-7.38,6.77-12.19,10.24-14.3,10.24c-0.45,0-1.5,0-3.46,0.15c-1.8,0.15-3.01,0.3-3.46,0.3
		c-3.16,0-6.02-1.66-8.58-5.12c-2.56-3.46-3.91-6.77-3.91-9.93c0-3.77,2.26-10.84,6.77-21.23c4.67-10.84,7.98-16.25,10.24-16.25
		c3.16,0,5.57,1.95,7.23,5.72c-0.45,1.05-3.47,6.62-8.88,16.41c-3.46,6.32-5.27,11.59-5.27,15.81c0,0.9,0,1.81,0.15,2.56
		c0.75,1.36,2.56,2.11,5.27,2.11c3.77,0,8.88-2.56,15.35-7.67c7.68-5.87,12.04-9.18,13.4-9.63c0,0.15,0.75,1.05,0.75,2.11
		C2144.58,412.79,2140.82,417.6,2133.29,424.38z M2139.61,358.6c-4.82,3.61-7.83,5.42-9.03,5.42c-3.16,0-6.47-4.52-6.47-7.53
		c0-0.6,0.15-1.06,0.3-1.36c1.96-1.05,3.91-2.26,5.87-3.31c7.97-4.22,16.1-4.82,16.26-4.82c0.75,0,1.65,1.05,2.71,3.01
		C2147.59,352.13,2144.43,354.99,2139.61,358.6z"/>
	<path class="st0" d="M2186.43,386.3c-0.45-0.15-1.66-0.9-3.46-2.11c-0.75-0.45-1.81-2.56-3.01-6.02c-0.45-0.75-1.2-1.05-2.41-1.2
		c-2.86-0.3-4.82,0.9-5.72,3.46c-0.15,0.3-0.3,2.41-0.76,6.17c-0.15,1.05,0.76,6.17,2.56,15.65c1.81,9.49,2.56,16.26,2.11,20.47
		c-0.45,4.82-2.41,9.18-5.87,13.1c-4.37,4.82-9.63,7.22-16.11,7.22c-7.23,0-12.34-4.06-12.34-10.69c0-1.36,0.15-2.71,0.6-4.06
		c1.35-4.52,3.16-7.83,5.72-9.79c1.66-1.05,3.16-1.95,4.82-2.86c1.05,0,2.26,0,3.61,0.15c-1.05,1.95-1.96,4.06-3.01,6.02
		c-1.66,3.46-2.56,6.17-2.56,7.98c0,2.25,1.51,3.46,4.36,3.46c3.01,0,5.72-1.81,8.28-5.27c2.56-3.46,4.06-7.23,4.22-10.99
		c0.15-0.6-0.75-5.57-2.71-14.75c-1.96-9.78-3.01-14.6-3.01-14.75c-0.15-0.9-0.15-1.81-0.15-2.86c0-4.97,1.35-9.63,4.21-13.7
		c2.86-4.21,6.32-6.32,10.39-6.17c4.06,0,7.38,2.11,9.78,6.32c2.11,3.46,3.01,7.07,2.56,10.69
		C2188.54,382.84,2186.58,385.09,2186.43,386.3z"/>
	<path class="st0" d="M2253.87,380.88c-0.45,0.6,0.6,1.81,0.6,2.26c0,0.75-0.6,1.51-1.8,2.56c-9.79,1.96-17.01,3.91-21.83,5.87
		c-3.61,1.5-7.22,3.46-10.99,5.87c0.15,1.36-0.45,3.61-1.5,6.78c-1.05,3.01-1.65,5.27-1.65,6.62c0,1.2,0.45,4.66,0.6,5.72
		c0,1.36-0.9,5.27-2.56,11.44c-1.96,7.22-3.91,10.84-5.57,10.84c-1.81,0-3.61-1.81-5.42-5.27c-1.36-2.86-2.11-5.12-2.11-6.62
		c0-0.45,1.06-4.07,3.16-10.69c2.26-6.77,3.31-10.39,3.31-10.99c0-1.06-2.11-3.91-2.26-4.67c-0.9-3.01-1.35-5.57-1.35-7.83
		c0-0.75,0.75-1.95,2.41-3.91c1.66-1.95,2.86-2.86,3.31-2.86c1.21,0,1.81-0.3,2.86-0.3c1.05,0,3.01-4.06,6.02-12.34
		c1.51-4.37,3.01-8.58,4.52-12.79c2.86-6.47,6.32-15.81,10.69-28.3c1.96-3.01,3.92-2.86,4.52-3.91h2.71c0,1.06,2.41,6.02,2.41,9.03
		c0,2.71-2.71,9.63-8.13,20.77c-6.02,12.64-9.63,20.92-10.69,24.84l0.9,1.06c3.61-0.9,7.53-1.5,11.59-1.81L2253.87,380.88z"/>
	<path class="st0" d="M2294.22,386.3c-0.45-0.15-1.66-0.9-3.46-2.11c-0.75-0.45-1.81-2.56-3.01-6.02c-0.45-0.75-1.2-1.05-2.41-1.2
		c-2.86-0.3-4.82,0.9-5.72,3.46c-0.15,0.3-0.3,2.41-0.75,6.17c-0.15,1.05,0.75,6.17,2.56,15.65c1.81,9.49,2.56,16.26,2.11,20.47
		c-0.45,4.82-2.41,9.18-5.87,13.1c-4.36,4.82-9.63,7.22-16.11,7.22c-7.23,0-12.34-4.06-12.34-10.69c0-1.36,0.15-2.71,0.6-4.06
		c1.35-4.52,3.16-7.83,5.72-9.79c1.66-1.05,3.16-1.95,4.82-2.86c1.05,0,2.25,0,3.61,0.15c-1.05,1.95-1.96,4.06-3.01,6.02
		c-1.66,3.46-2.56,6.17-2.56,7.98c0,2.25,1.51,3.46,4.37,3.46c3.01,0,5.72-1.81,8.28-5.27c2.56-3.46,4.06-7.23,4.22-10.99
		c0.15-0.6-0.76-5.57-2.71-14.75c-1.96-9.78-3.01-14.6-3.01-14.75c-0.15-0.9-0.15-1.81-0.15-2.86c0-4.97,1.36-9.63,4.21-13.7
		c2.86-4.21,6.32-6.32,10.39-6.17c4.06,0,7.38,2.11,9.78,6.32c2.11,3.46,3.01,7.07,2.56,10.69
		C2296.32,382.84,2294.37,385.09,2294.22,386.3z"/>
</g>
<g>
	<path class="st0" d="M86.66,183.85L151.07,2.92h6.38l66.27,180.93L287.66,2.92h18.82l-81.52,221.54h-3.58l-66.9-182.95
		L88.22,224.46H84.8L1.56,2.92H20.7L86.66,183.85z"/>
	<path class="st0" d="M377.18,206.57c-7.99,6.12-15.43,10.5-22.32,13.15c-6.9,2.65-14.13,3.97-21.7,3.97
		c-11.82,0-21.42-3.42-28.78-10.27c-7.37-6.85-11.05-15.71-11.05-26.6c0-15.87,7.18-28.37,21.55-37.49
		c14.36-9.13,35.03-14.26,62-15.4v-15.25c0-10.79-2.57-18.64-7.7-23.57c-5.13-4.92-13.3-7.39-24.5-7.39c-6.95,0-13.95,1.4-21,4.2
		c-7.05,2.8-14.73,7.26-23.03,13.38V89.58c8.09-5.39,15.84-9.39,23.26-11.98c7.41-2.59,14.75-3.89,22.01-3.89
		c16.49,0,28.42,3.81,35.78,11.43c7.36,7.62,11.05,20.05,11.05,37.26v75.3c0,3.11,0.41,5.42,1.24,6.92
		c0.83,1.51,2.13,2.25,3.89,2.25c2.49,0,6.79-2.69,12.91-8.09c1.45-1.35,2.54-2.33,3.27-2.96l0.16,14.47
		c-4.67,4.35-8.97,7.62-12.91,9.8c-3.94,2.18-7.42,3.27-10.42,3.27c-4.57,0-7.91-1.32-10.03-3.97
		C378.71,216.76,377.49,212.48,377.18,206.57z M376.87,191.63v-44.96c-20.74,0.31-37.13,4.04-49.16,11.2
		c-12.03,7.16-18.05,16.59-18.05,28.31c0,7.37,2.49,13.17,7.47,17.42c4.98,4.25,11.82,6.38,20.54,6.38c5.91,0,12.03-1.48,18.36-4.44
		C362.35,202.6,369.3,197.96,376.87,191.63z"/>
	<path class="st0" d="M436.14,220.57V2.92h16.34v217.65H436.14z"/>
	<path class="st0" d="M492.93,220.57V2.92h16.34v217.65H492.93z"/>
	<path class="st0" d="M540.22,194.43c7.26,4.88,14.41,8.48,21.47,10.81c7.05,2.33,14.21,3.5,21.47,3.5c9.23,0,16.49-2.18,21.78-6.53
		c5.29-4.36,7.93-10.32,7.93-17.89c0-11.1-9.65-20.17-28.94-27.23c-4.98-1.87-8.87-3.32-11.67-4.36
		c-10.58-4.15-18.51-9.51-23.8-16.1c-5.29-6.58-7.93-14.39-7.93-23.41c0-11.61,4.23-21.1,12.68-28.47
		c8.45-7.36,19.42-11.04,32.9-11.04c6.12,0,12.42,0.99,18.9,2.95c6.48,1.97,13.2,5.03,20.15,9.18v16.49
		c-7.26-4.67-14.21-8.17-20.85-10.5c-6.64-2.33-13.07-3.5-19.29-3.5c-8.51,0-15.51,2.31-21,6.92c-5.5,4.62-8.25,10.5-8.25,17.66
		c0,6.33,2.51,11.64,7.55,15.95c5.03,4.3,14.39,8.84,28.08,13.61c14.52,5.08,24.48,10.61,29.87,16.57
		c5.39,5.96,8.09,13.82,8.09,23.57c0,12.76-4.23,22.79-12.68,30.1c-8.45,7.31-20.04,10.97-34.77,10.97c-7.47,0-14.6-1.04-21.39-3.11
		c-6.79-2.07-13.56-5.23-20.3-9.49V194.43z"/>
	<path class="st0" d="M812.94,206.57c-7.99,6.12-15.43,10.5-22.32,13.15c-6.9,2.65-14.13,3.97-21.7,3.97
		c-11.82,0-21.42-3.42-28.78-10.27c-7.37-6.85-11.05-15.71-11.05-26.6c0-15.87,7.18-28.37,21.55-37.49
		c14.36-9.13,35.03-14.26,62-15.4v-15.25c0-10.79-2.57-18.64-7.7-23.57c-5.13-4.92-13.3-7.39-24.5-7.39c-6.95,0-13.95,1.4-21,4.2
		c-7.06,2.8-14.73,7.26-23.03,13.38V89.58c8.09-5.39,15.84-9.39,23.26-11.98c7.41-2.59,14.75-3.89,22.01-3.89
		c16.49,0,28.42,3.81,35.78,11.43c7.36,7.62,11.05,20.05,11.05,37.26v75.3c0,3.11,0.41,5.42,1.24,6.92
		c0.83,1.51,2.13,2.25,3.89,2.25c2.49,0,6.79-2.69,12.91-8.09c1.45-1.35,2.54-2.33,3.27-2.96l0.15,14.47
		c-4.67,4.35-8.97,7.62-12.91,9.8c-3.94,2.18-7.42,3.27-10.42,3.27c-4.57,0-7.91-1.32-10.03-3.97
		C814.47,216.76,813.25,212.48,812.94,206.57z M812.63,191.63v-44.96c-20.74,0.31-37.13,4.04-49.16,11.2
		c-12.03,7.16-18.05,16.59-18.05,28.31c0,7.37,2.49,13.17,7.47,17.42c4.98,4.25,11.82,6.38,20.54,6.38c5.91,0,12.03-1.48,18.36-4.44
		C798.11,202.6,805.06,197.96,812.63,191.63z"/>
	<path class="st0" d="M870.66,220.57V76.82h15.87v23.02c6.95-8.61,14.55-15.01,22.79-19.21c8.24-4.2,17.24-6.3,26.99-6.3
		c16.28,0,28.83,5.08,37.65,15.25c8.81,10.17,13.22,24.63,13.22,43.4v87.59h-15.87V140.6c0-17.32-3.03-30.26-9.1-38.82
		c-6.07-8.56-15.22-12.83-27.46-12.83c-9.96,0-18.96,2.54-26.99,7.62c-8.04,5.08-15.12,12.66-21.24,22.71v101.28H870.66z"/>
	<path class="st0" d="M1125.8,209.99c-5.81,4.46-12.03,7.75-18.67,9.88c-6.64,2.13-13.9,3.19-21.78,3.19
		c-20.95,0-37.94-6.87-50.95-20.61c-13.02-13.74-19.53-31.71-19.53-53.91c0-22.19,6.51-40.16,19.53-53.91
		c13.01-13.74,30-20.61,50.95-20.61c7.88,0,15.14,1.07,21.78,3.19c6.64,2.13,12.86,5.42,18.67,9.88V2.92h15.56v217.65h-15.56V209.99
		z M1125.8,192.57V104.2c-5.29-5.5-11.05-9.57-17.27-12.21c-6.22-2.64-13.33-3.97-21.31-3.97c-15.97,0-28.99,5.55-39.05,16.65
		c-10.06,11.1-15.09,25.62-15.09,43.56c0,17.95,5.03,32.47,15.09,43.56c10.06,11.1,23.08,16.65,39.05,16.65
		c8.19,0,15.37-1.27,21.55-3.81C1114.93,202.08,1120.61,198.06,1125.8,192.57z"/>
	<path class="st0" d="M1267.99,220.57V2.92h110.46v14.62h-92.26v80.43h83.39v14.31h-83.39v108.28H1267.99z"/>
	<path class="st0" d="M1405.2,220.57V2.92h16.33v217.65H1405.2z"/>
	<path class="st0" d="M1451.1,148.54c0-20.85,7.26-38.53,21.78-53.05c14.52-14.52,32.25-21.78,53.21-21.78
		c20.74,0,38.4,7.29,52.97,21.86c14.57,14.57,21.86,32.23,21.86,52.97c0,9.85-1.94,19.42-5.83,28.7
		c-3.89,9.28-9.36,17.45-16.41,24.5c-7.16,7.16-15.2,12.55-24.11,16.18c-8.92,3.63-18.41,5.45-28.47,5.45
		c-20.95,0-38.69-7.23-53.21-21.7C1458.36,187.2,1451.1,169.49,1451.1,148.54z M1468.68,148.85c0,16.7,5.6,30.86,16.8,42.47
		c11.2,11.62,24.73,17.42,40.6,17.42c15.76,0,29.19-5.81,40.29-17.42c11.1-11.61,16.64-25.77,16.64-42.47
		c0-16.8-5.52-31.04-16.57-42.71c-11.05-11.67-24.5-17.5-40.37-17.5c-16.08,0-29.67,5.83-40.76,17.5
		C1474.23,117.81,1468.68,132.05,1468.68,148.85z"/>
	<path class="st0" d="M1619.58,148.54c0-20.85,7.26-38.53,21.78-53.05c14.52-14.52,32.25-21.78,53.21-21.78
		c20.74,0,38.4,7.29,52.97,21.86c14.57,14.57,21.86,32.23,21.86,52.97c0,9.85-1.94,19.42-5.83,28.7
		c-3.89,9.28-9.36,17.45-16.41,24.5c-7.16,7.16-15.2,12.55-24.11,16.18c-8.92,3.63-18.41,5.45-28.47,5.45
		c-20.95,0-38.69-7.23-53.21-21.7C1626.85,187.2,1619.58,169.49,1619.58,148.54z M1637.17,148.85c0,16.7,5.6,30.86,16.8,42.47
		c11.2,11.62,24.73,17.42,40.6,17.42c15.76,0,29.19-5.81,40.29-17.42c11.1-11.61,16.64-25.77,16.64-42.47
		c0-16.8-5.52-31.04-16.57-42.71c-11.05-11.67-24.5-17.5-40.37-17.5c-16.08,0-29.67,5.83-40.76,17.5
		C1642.71,117.81,1637.17,132.05,1637.17,148.85z"/>
	<path class="st0" d="M1799.89,220.57V76.82h16.02v35.47c8.92-13.69,17.06-23.44,24.42-29.25c7.37-5.81,15.04-8.71,23.03-8.71
		c4.35,0,8.58,0.88,12.68,2.64c4.1,1.76,8.37,4.51,12.83,8.24l-8.71,15.25c-4.36-3.53-8.32-6.12-11.9-7.78
		c-3.58-1.66-7.03-2.49-10.34-2.49c-6.43,0-12.97,3.11-19.6,9.34c-6.64,6.22-14.11,16.28-22.4,30.18v90.85H1799.89z"/>
	<path class="st0" d="M1894.95,194.43c7.26,4.88,14.41,8.48,21.47,10.81c7.05,2.33,14.21,3.5,21.47,3.5
		c9.23,0,16.49-2.18,21.78-6.53c5.29-4.36,7.93-10.32,7.93-17.89c0-11.1-9.65-20.17-28.94-27.23c-4.98-1.87-8.87-3.32-11.67-4.36
		c-10.58-4.15-18.52-9.51-23.8-16.1c-5.29-6.58-7.93-14.39-7.93-23.41c0-11.61,4.22-21.1,12.68-28.47
		c8.45-7.36,19.42-11.04,32.9-11.04c6.12,0,12.42,0.99,18.9,2.95c6.48,1.97,13.2,5.03,20.15,9.18v16.49
		c-7.26-4.67-14.21-8.17-20.85-10.5c-6.64-2.33-13.07-3.5-19.29-3.5c-8.5,0-15.51,2.31-21,6.92c-5.5,4.62-8.24,10.5-8.24,17.66
		c0,6.33,2.51,11.64,7.55,15.95c5.03,4.3,14.39,8.84,28.08,13.61c14.52,5.08,24.47,10.61,29.87,16.57
		c5.39,5.96,8.09,13.82,8.09,23.57c0,12.76-4.23,22.79-12.68,30.1c-8.46,7.31-20.05,10.97-34.77,10.97c-7.47,0-14.6-1.04-21.39-3.11
		c-6.8-2.07-13.56-5.23-20.3-9.49V194.43z"/>
</g>
</svg>
